<?xml version="1.0" encoding="UTF-8"?><svg xmlns="http://www.w3.org/2000/svg" xmlns:xlink="http://www.w3.org/1999/xlink" height="243.8" preserveAspectRatio="xMidYMid meet" version="1.0" viewBox="0.0 0.0 906.3 243.8" width="906.3" zoomAndPan="magnify"><g><g id="change1_1"><path d="M798.2,180.2H90.1C40.3,180.2,0,139.8,0,90.1v0C0,40.3,40.3,0,90.1,0h708.1c49.7,0,90.1,40.3,90.1,90.1v0 C888.3,139.8,848,180.2,798.2,180.2z" fill="#e30613"/></g><g><g id="change2_1"><path d="M856.2,81.7c-4.9-2.1-10.3-2.2-15.3-0.3c-3.3,1.3-6.1,3.4-8.2,6c-1.5-1.3-3.1-2.3-5-3.1 c-4.9-2.1-10.3-2.2-15.3-0.3c-3.4,1.3-6.2,3.5-8.3,6.1c-1.4-1.2-3-2.2-4.8-2.9c-4.9-2.1-10.3-2.2-15.3-0.3c-2.4,1-4.6,2.4-6.4,4.1 l-11.6-29.5c-2-5-5.7-8.9-10.6-11c-4.9-2.1-10.3-2.2-15.3-0.3c-10.2,4-15.3,15.7-11.3,25.9l31.4,79.7l-21.6-9.4 c-5.6-2.4-11.7-2.5-17.4-0.3c-5.6,2.2-10.1,6.5-12.5,12.1c-5,11.5,0.3,24.9,11.8,29.9l63.3,27.5l4.2,10.7 c4.6,11.7,17.9,17.5,29.6,12.9l71.2-28.1c11.7-4.6,17.5-17.9,12.9-29.6l-35-88.9C864.9,87.8,861.1,83.8,856.2,81.7z M890.2,186.2 c2.1,5.3-0.5,11.3-5.8,13.4l-71.2,28.1c-5.3,2.1-11.3-0.5-13.4-5.8l-5.2-13.2c-0.6-1.5-1.8-2.8-3.3-3.4l-65.6-28.5 c-5.1-2.2-7.5-8.2-5.3-13.4c1.1-2.6,3.2-4.5,5.6-5.4c2.4-1,5.2-1,7.8,0.1l35.5,15.4c2.3,1,5,0.5,6.9-1.2s2.4-4.4,1.5-6.8l-37-93.8 c-1.5-3.8,0.4-8.1,4.2-9.7c1.8-0.7,3.9-0.7,5.7,0.1c1.8,0.8,3.2,2.2,4,4.1l35.8,90.8c1.3,3.2,4.9,4.8,8.1,3.5 c3.2-1.3,4.8-4.9,3.5-8.1l-17.3-44c-1.5-3.8,0.4-8.1,4.2-9.7c1.8-0.7,3.9-0.7,5.7,0.1c1.8,0.8,3.2,2.2,4,4.1l17.3,44 c1.3,3.2,4.9,4.8,8.1,3.5c3.2-1.3,4.8-4.9,3.5-8.1l-14.5-36.9c-1.5-3.8,0.4-8.1,4.2-9.7c1.8-0.7,3.9-0.7,5.7,0.1 c1.8,0.8,3.2,2.2,4,4.1l14.4,36.5c1.3,3.2,4.9,4.8,8.1,3.5c3.2-1.3,4.8-4.9,3.5-8.1l-11.5-29.1c-1.5-3.8,0.4-8.1,4.2-9.7 c1.8-0.7,3.9-0.7,5.7,0.1c0,0,0,0,0,0c1.8,0.8,3.2,2.2,4,4.1L890.2,186.2z" fill="#1d1d1b"/></g><g id="change3_2"><path d="M855.2,97.3l35,88.9c2.1,5.3-0.5,11.3-5.8,13.4l-71.2,28.1c-5.3,2.1-11.3-0.5-13.4-5.8l-5.2-13.2 c-0.6-1.5-1.8-2.8-3.3-3.4l-65.6-28.5c-5.1-2.2-7.5-8.2-5.3-13.4c1.1-2.6,3.2-4.5,5.6-5.4c2.4-1,5.2-1,7.8,0.1l35.5,15.4 c2.3,1,5,0.5,6.9-1.2s2.4-4.4,1.5-6.8l-37-93.8c-1.5-3.8,0.4-8.1,4.2-9.7c1.8-0.7,3.9-0.7,5.7,0.1c1.8,0.8,3.2,2.2,4,4.1 l35.8,90.8c1.3,3.2,4.9,4.8,8.1,3.5c3.2-1.3,4.8-4.9,3.5-8.1l-17.3-44c-1.5-3.8,0.4-8.1,4.2-9.7c1.8-0.7,3.9-0.7,5.7,0.1 c1.8,0.8,3.2,2.2,4,4.1l17.3,44c1.3,3.2,4.9,4.8,8.1,3.5c3.2-1.3,4.8-4.9,3.5-8.1l-14.5-36.9c-1.5-3.8,0.4-8.1,4.2-9.7 c1.8-0.7,3.9-0.7,5.7,0.1c1.8,0.8,3.2,2.2,4,4.1l14.4,36.5c1.3,3.2,4.9,4.8,8.1,3.5c3.2-1.3,4.8-4.9,3.5-8.1l-11.5-29.1 c-1.5-3.8,0.4-8.1,4.2-9.7c1.8-0.7,3.9-0.7,5.7,0.1c0,0,0,0,0,0C853,94,854.5,95.5,855.2,97.3z" fill="#f6f6f6"/></g></g><g fill="#f6f6f6" id="change3_1"><path d="M116.6,111.9l8.8,17.6c0,0-10.1,8.3-29.7,8.3c-25.6,0-49-20.8-49-46.7C46.6,65,70,44,95.6,44 c19.6,0,29.7,8.3,29.7,8.3l-8.8,17.6c0,0-7.2-5.6-17.8-5.6C78.1,64.3,69,78.7,69,90.8c0,12.2,9.1,26.7,29.8,26.7 C109.3,117.5,116.6,111.9,116.6,111.9z" fill="inherit"/><path d="M150.9,118h31.2v18.1h-51.8V45.6h20.6V118z" fill="inherit"/><path d="M208.6,136.1h-20.6V45.6h20.6V136.1z" fill="inherit"/><path d="M285.7,111.9l8.8,17.6c0,0-10.1,8.3-29.7,8.3c-25.6,0-49-20.8-49-46.7c0-26,23.4-47.1,49-47.1 c19.6,0,29.7,8.3,29.7,8.3l-8.8,17.6c0,0-7.2-5.6-17.8-5.6c-20.7,0-29.8,14.5-29.8,26.5c0,12.2,9.1,26.7,29.8,26.7 C278.5,117.5,285.7,111.9,285.7,111.9z" fill="inherit"/><path d="M353.4,136.1L320,97.7v38.4h-20.6V45.6H320v37l31-37h25l-36.4,42.9l42.1,47.6H353.4z" fill="inherit"/><path d="M436.3,136.1h-20.6V45.6h20.6v36.1h29.2V45.6h20.6v90.5h-20.6V99.8h-29.2V136.1z" fill="inherit"/><path d="M549.6,63.7h-31.2v18h29.8v18.1h-29.8V118h31.2v18.1h-51.8V45.6h51.8V63.7z" fill="inherit"/><path d="M591.9,45.6c16.8,0,29.5,9.1,29.5,26.9c0,13.6-7.5,22.7-18.5,26.2l31.2,37.4h-26.2l-27.6-35.8v35.8h-20.6 V45.6H591.9z M582.5,85.8c7.8,0,17.1-0.5,17.1-11.8c0-11.3-9.3-11.8-17.1-11.8h-2.4v23.7H582.5z" fill="inherit"/><path d="M689,63.7h-31.2v18h29.8v18.1h-29.8V118H689v18.1h-51.8V45.6H689V63.7z" fill="inherit"/></g></g></svg>